<?xml version="1.0" encoding="UTF-8"?>
<svg id="Layer_1" xmlns="http://www.w3.org/2000/svg" version="1.1" viewBox="0 0 66 28">
  <!-- Generator: Adobe Illustrator 30.0.0, SVG Export Plug-In . SVG Version: 2.1.1 Build 123)  -->
  <defs>
    <style>
      .st0 {
        fill: #316073;
      }

      .st1 {
        fill: #58b6d6;
      }

      .st2 {
        fill: #778b91;
      }

      .st3 {
        fill: #22435c;
      }

      .st4 {
        fill: #22425c;
      }

      .st5 {
        fill: #79afbb;
      }

      .st6 {
        fill: #f0f6f3;
      }

      .st7 {
        fill: #43708e;
      }

      .st8 {
        fill: #e5f7f4;
      }

      .st9 {
        fill: #eff1ea;
      }

      .st10 {
        fill: #a8d2e4;
      }

      .st11 {
        fill: #e2f8f3;
      }

      .st12 {
        fill: #aedfe9;
      }

      .st13 {
        fill: #30505e;
      }

      .st14 {
        fill: #a19e9e;
      }

      .st15 {
        fill: #7fb8c6;
      }

      .st16 {
        fill: #b6cad7;
      }

      .st17 {
        fill: #d4ebea;
      }

      .st18 {
        fill: #18375c;
      }

      .st19 {
        fill: #edf7f5;
      }

      .st20 {
        fill: #273b58;
      }

      .st21 {
        fill: #d8e1db;
      }

      .st22 {
        fill: #506977;
      }

      .st23 {
        fill: #68b3d1;
      }

      .st24 {
        fill: #284763;
      }

      .st25 {
        fill: #233e57;
      }

      .st26 {
        fill: #203f5c;
      }

      .st27 {
        fill: #224a6a;
      }

      .st28 {
        fill: #234456;
      }

      .st29 {
        fill: #f4f7ed;
      }

      .st30 {
        fill: #95cbdf;
      }

      .st31 {
        fill: #65afc6;
      }

      .st32 {
        fill: #1d3b5c;
      }

      .st33 {
        fill: #5c7599;
      }

      .st34 {
        fill: #5897bc;
      }

      .st35 {
        fill: #203249;
      }

      .st36 {
        fill: #375368;
      }

      .st37 {
        fill: #3e7b9d;
      }

      .st38 {
        fill: #5d7271;
      }

      .st39 {
        fill: #f2f7f1;
      }

      .st40 {
        fill: #5d5c62;
      }

      .st41 {
        fill: #7e8787;
      }

      .st42 {
        fill: #17446e;
      }

      .st43 {
        fill: #a1bbb9;
      }

      .st44 {
        fill: #64b7d0;
      }

      .st45 {
        fill: #57afcc;
      }

      .st46 {
        fill: #24465d;
      }

      .st47 {
        fill: #6d838d;
      }

      .st48 {
        fill: #70b1c5;
      }

      .st49 {
        fill: #67aec7;
      }

      .st50 {
        fill: #788ab1;
      }

      .st51 {
        fill: #324f62;
      }

      .st52 {
        fill: #3c6471;
      }

      .st53 {
        fill: #f3f3e4;
      }

      .st54 {
        fill: #9cabae;
      }

      .st55 {
        fill: #a0c5dc;
      }

      .st56 {
        fill: #7d99b5;
      }

      .st57 {
        fill: #c7e7f7;
      }

      .st58 {
        fill: #63727e;
      }

      .st59 {
        fill: #5fa7c1;
      }

      .st60 {
        fill: #5a839d;
      }

      .st61 {
        fill: #245277;
      }

      .st62 {
        fill: #535d73;
      }

      .st63 {
        fill: #2c4b62;
      }

      .st64 {
        fill: #ccdbe3;
      }

      .st65 {
        fill: #65bad1;
      }

      .st66 {
        fill: #f2f3e7;
      }

      .st67 {
        fill: #85b3b9;
      }

      .st68 {
        fill: #f9f8eb;
      }

      .st69 {
        fill: #73b9cf;
      }

      .st70 {
        fill: #8794a1;
      }

      .st71 {
        fill: #1e3e59;
      }

      .st72 {
        fill: #74b3cb;
      }

      .st73 {
        fill: #3d5868;
      }

      .st74 {
        fill: #eaeff0;
      }

      .st75 {
        fill: #69b9d3;
      }

      .st76 {
        fill: #64a9cb;
      }

      .st77 {
        fill: #264d67;
      }

      .st78 {
        fill: #396276;
      }

      .st79 {
        fill: #426f89;
      }

      .st80 {
        fill: #e7eded;
      }

      .st81 {
        fill: #d0e6ef;
      }

      .st82 {
        fill: #89c1d6;
      }

      .st83 {
        fill: #cedae2;
      }

      .st84 {
        fill: #334b62;
      }

      .st85 {
        fill: #58636b;
      }

      .st86 {
        fill: #67a9bf;
      }

      .st87 {
        fill: #1b466c;
      }

      .st88 {
        fill: #8eb1c8;
      }

      .st89 {
        fill: #eaefef;
      }

      .st90 {
        fill: #7eb7cd;
      }

      .st91 {
        fill: #224564;
      }

      .st92 {
        fill: #03213f;
      }

      .st93 {
        fill: #878a89;
      }

      .st94 {
        fill: #39515c;
      }

      .st95 {
        fill: #f5f5f1;
      }

      .st96 {
        fill: #15466d;
      }

      .st97 {
        fill: #ecf4f3;
      }

      .st98 {
        fill: #84afc4;
      }

      .st99 {
        fill: #f6fbf0;
      }

      .st100 {
        fill: #76b9ca;
      }

      .st101 {
        fill: #9ebbc7;
      }

      .st102 {
        fill: #28526a;
      }

      .st103 {
        fill: #465969;
      }

      .st104 {
        fill: #30495c;
      }

      .st105 {
        fill: #5790b4;
      }

      .st106 {
        fill: #7aa6a7;
      }

      .st107 {
        fill: #284f66;
      }

      .st108 {
        fill: #1b3b5e;
      }

      .st109 {
        fill: #4e6470;
      }

      .st110 {
        fill: #cdeef2;
      }

      .st111 {
        fill: #f9f5e2;
      }

      .st112 {
        fill: #183f63;
      }

      .st113 {
        fill: #39454c;
      }

      .st114 {
        fill: #334b5d;
      }

      .st115 {
        fill: #1c4668;
      }

      .st116 {
        fill: #fbf8e8;
      }

      .st117 {
        fill: #faf9f1;
      }

      .st118 {
        fill: #f6f6e5;
      }

      .st119 {
        fill: #70afc1;
      }

      .st120 {
        fill: #50738e;
      }

      .st121 {
        fill: #426e87;
      }

      .st122 {
        fill: #1e354c;
      }

      .st123 {
        fill: #c5dfe3;
      }

      .st124 {
        fill: #759abb;
      }

      .st125 {
        fill: #71a5b7;
      }
    </style>
  </defs>
  <path class="st66" d="M29.1,20.9c0,.2-.3.4,0,.6h0c.2-.3.2-.5,0-.6ZM27.5,25c-.5.4-1.2,1.6-1.7,1.7-.1,0-.2,0-.3,0,.1.6.9,0,1.1-.3.6-.9,1.2-1.5,2.3-1.8v-.2c-.4.3-.9.4-1.4.8ZM28.1,18.9c-.1-.2-.2-.7-.3-.9-.1.2-.1.5,0,.9h-.1c0,.9.2,1.7.3,2.5l-.2-2.3c0-.1.3,0,.3-.2ZM28,21.3l-.2.2c0,.7.1,1.3,0,2l-.2-.2c0,.3,0,.7,0,1,.2,0,.1-.2.2-.3.3-.8.2-1.9,0-2.7ZM27.6,25.5c-.4.4-.8.7-1.1,1.1-.3.3-.7.5-1,.2h-.2c1,1.2,1.7-.9,2.5-1.2h-.2ZM27.5,18.1h-.2c0,0,.4,5.2.4,5.2-.1-1.8-.2-3.5-.2-5.2ZM27.3,18s0,0,0,0h0s0,0,0,0ZM27,22.8c0-.3-.3-.6-.3-.8,0-.3.3-.2,0-.6-.3-.4-.6-.5-.6,0s.8,1.6.7,1.9c-.1.3-1.2,1-1.6,1.1-1.7.8-3.4.3-2.9-1.9-.4.6-.4,1.5,0,2.1.7,1.3,2.1.9,3.2.4-.2.6-.6,1.2,0,1.8,0-.2,0-.3.2-.3-.3-.3-.2-.9,0-1.3.2-.6.8-.7,1.2-1.2.3-.4.4-.8.4-1.4ZM26.3,20.8c0,0,.1,0,.2,0,0,0-.1,0-.2,0ZM23,21.3c0,0,0,.1.1.2,0,0,0,0,0,0,0,0-.1-.1-.2-.2ZM23,20s0,0,0,0h0s0,0,0,0ZM23,21.6l-.3.3c0,0-.1-.2-.2-.3-.2.2,0,.5.3.4-.1.3-.3.3-.6,0,.1.7,1,.2.8-.4ZM22.6,20.4c0,0-.1,0-.1.2,0,0,0,0,0,0,0,0,0,0,0,.1,0,0,0,0,0,0h0s0,0-.1,0c0,.5-.4,1,0,1.5,0,0,0-.1,0-.2,0-.2,0-.3,0-.4,0,0,0,0,.1-.1,0,0,0,0,0-.1,0,0,0,.1,0,.2h0c0,0,0,.1,0,.2,0,0,0,0,0,0,0-.5,0-.8.2-1.2Z"/>
  <path class="st19" d="M30.2,8.3c0,0,.1,0,.1-.1,0,0-.1,0-.1.1ZM30,8c0,0,0,.1,0,.2,0,0,0,0,0,0,0,0,0,0,0-.1ZM29.4,4s0,0,0,0c0,0,.1,0,.2,0,0,0,0,0,0,0ZM30.3,8.2c0,0,.2,0,.3-.2h0c.2-.1.3-.3.4-.4,0,0,.1-.1.1-.2-.3.2-.7.4-.9.9ZM31.2,7.3h.2c.3-.2.6-.4.8-.6-.4,0-.7.4-1,.6ZM32,2.9c0,.2-.2.1-.2.5s0,.3.2.5c-.1-.3-.1-.6,0-.9ZM32.4,2.7c-.1.4-.1.8.2,1.2-.2-.4-.2-.8-.2-1.2ZM32.3,2.4c0,0,0-.1,0-.2-.2.2-.2.4-.3.6.1,0,.2-.1.3-.3,0,0,0,0,0,.1,0-.1.1-.3.2-.4,0,0-.1,0-.2.2ZM32.2,6.7c.2,0,.5,0,.4-.3-.2.1-.3.2-.4.3ZM33.2,5.6c0-.2.2-.6-.1-.8-.1.5-.1,1.1-.4,1.5h.1c0-.2,0-.2,0-.2,0,0,0,0,0,0,0,0,.1-.2.2-.3,0,0,0,0,0,0h0s.2.4.2.4c0-.2-.1-.4-.1-.6ZM33.3,6.2c0,.2,0,.3.3.2-.1,0-.1,0-.3-.2ZM33.7,4.3c-.5,0-.8,0-1.2-.4-.1.4.5.6.8.6-.5.1-.9-.2-1.1-.6h-.2c.4.7,1.1,1.1,1.9.6.5-.3,0-.1-.2-.1ZM33.6,6.4l1.4,1h.1c-.5-.4-1-.7-1.5-1ZM35.1,7.3c0,0,0,.2,0,.2,0,0,0,0,0,0,0,0,0,0,0,0,0,0-.1,0-.2,0Z"/>
  <path class="st18" d="M29.9,15.9s0,0,0,0c0,0-.2,0-.3,0-.4,0-.8.1-1.2.3-.2,0-.4.1-.6.2-.3,0-.7,0-.9.3-.4,0-1.5.4-2,.6-.2,0-.3-.2-.3-.3,0,0,0,0,0,0,.4-.2.4-.9.3-1.3,0-.2-.2-.1-.2-.1-.1-.1-.2-.3-.3-.4,0-.3,0-.6.2-.9.2-.3.1-.3.4-.6,0,0,0,0,.1,0,0,0,.2,0,.2,0,0,0,0,0,.1,0h0s0,0,0,0h.3s.2,0,.2,0c0,0,0,0,0,0h.2s0,0,0,0h0c0,.1-.2.3-.4.4,0,.4,0,.8,0,1.2,0,.3-.2.9-.3.4,0,0,0,0,0,0t0,0s0,0,0,0c0,0,0,0,0,0,0,0,0,0,0,0,0,0,0,0,0,0,0,0,0,.1,0,.2,0,0,0,.1,0,.2,0,0,0,0,0,0,0,0,0,0,0,0,0-.2.1-.3.3-.3h0c0,0,.1,0,.2,0,.7-.4.9-.3.7-1.1,0-.3,0-.2,0-.6,0-.3,0-.6,0-.9,0,0-.2,0-.2-.1,0,0,0-.1,0-.2,0,0,0,0,0-.1.1-.2,0-.3.3-.4,0,0,0-.1,0-.2,0,0,0-.2.1-.2.1,0,.3,0,.3.3h.2c0,.2.2.3.2.3,0,0,0,0,0,0,.2.2,0,.3-.2.4,0,.4,0,.9,0,1.3,0,0,0,0,0,0,0,0,0,.2,0,.3h0c0,0,0,.1,0,.2,0,0,0,0,0,.1,0,0,0,.1.2.2.1,0,.3,0,.4,0,0,0,0,0,0,0,0,0,0,0,0,0,.2,0,.4,0,.4.2.3.2.7.2,1.2,0v.2c.1,0,.1,0,.2,0,0,0,.1,0,.1,0t0,0Z"/>
  <path class="st11" d="M26.4,13.1s0,0,0,.2c0,0,0,.1,0,.2,0,.1-.2.3-.3.3h0c0,0-.1,0-.2,0,0,0,0,0,0,0h-.2s-.4,0-.4,0c0,0,0,0,0-.1,0-.2.4-.5.4-.6,0,.3-.2.5-.3.7h0c.6.1.7.1.9-.3,0,0,0,0,0-.1Z"/>
  <path class="st11" d="M26.3,5c-.8,2.2-1.1,4.7.3,6.7,0,.2,0,.4,0,.6,0,0,0,.2.1.2-.3-.1-.2-.5-.3-.7-.2-.4-.5-.8-.6-1.3-.7-1.9-.4-3.8.5-5.5Z"/>
  <path class="st11" d="M26.7,12.7c0,0,0-.1,0-.2t0,0c.1,0,0,.1,0,.2Z"/>
  <path class="st11" d="M27.7,3.1v.2c-.5.5-.9,1-1.2,1.6h-.1c.4-.8.6-1.2,1.4-1.9Z"/>
  <path class="st11" d="M28.3,10.6c0,0,.2,0,.3,0-.1,0-.2,0-.3,0,0,0,0-.2,0-.4-.7-1.1-.9-2.5-.7-3.8,0,0,0-.2,0-.3,0-.3.1-.7.3-1-.3,1.2-.4,2.5,0,3.8,0,.3.6,1.4.6,1.5,0,0-.2,0-.2,0Z"/>
  <path class="st11" d="M28.8,5.3s0,0,0,0c0,0,0-.1,0-.2,0,0,0,.1,0,.2Z"/>
  <path class="st11" d="M28.5,10.7c.1,0,.3,0,.4.2-.2.1-.4,0-.4-.2Z"/>
  <path class="st11" d="M27.9,5.2c0-.4,0-.7.3-1.1.3-.6.9-1.6,1.6-1.7-.9.7-1.4,1.8-1.9,2.8Z"/>
  <path class="st11" d="M28.9,6.8c0-.3-.2-.3-.2-.4.3-.1.3.6.2.8l-.2.9c.1.6.2,1.2,0,1.8.2.4.2.7,0,.9-.1-.6,0-1.5,0-2.3,0-.2-.2-.3-.2-.4,0-.3.3-.8.3-1.4Z"/>
  <path class="st11" d="M30,5.4h0c0,0,0,0,0,0Z"/>
  <path class="st11" d="M30,5.4l-.2-.2c.3-1.1-.9-1.4-.9-.1h-.2c0,0,0-.4,0-.6,0,0,.3-.4.5-.5,0,0,0,0,0,0s0,0,0,0h0c.1,0,.3.2.3.3.4.4.2.6.2,1.1Z"/>
  <path class="st11" d="M32.4,1.2c-.9.1-1.9.6-2.6,1.2,0-.1,0-.2.2-.3.1-.2.3-.3.5-.4.7-.4.8-.4,0-.1-.3,0-.5.2-.8.3-.4.2-.7.3-1.1.5,0,0,0,0,0,0-.3.2-.5.4-.8.6,0,0-.1.1-.2.1,1-1.1,2.8-1.9,4.2-2.1.1,0,.5,0,.6,0Z"/>
  <path class="st100" d="M37.2,6.4c.1,1.1.2,2.4,0,3.6,0,.2-.2.3,0,.5h0c-.3.2-.5.4-.4.8.5.4.4.7-.1.6,0,0-.1,0-.1,0,0,.2-.1.2-.2,0v-.2c-.4-.2-.3-.6-.2-1-.3,0-.7-.3-.4-.4,0,0,.1,0,.2,0h.5c0-.5.2-1.1.1-1.5,0-.2-.2-.3-.2-.5,0-.1.2-.2.2-.4,0-.3,0-1.3,0-1.7.1,0,.3,0,.4,0,0-.1.2-.3.3-.3.2.4-.1.5,0,.8Z"/>
  <path class="st32" d="M40.2,16.3c0,0,.2,0,.2,0h-.2s0,0,0,0Z"/>
  <path class="st32" d="M41.6,17.9s0,0,0,0c-.4-.2-.7-.4-1.1-.5,0,0,0,0,0,0t0,0s0,0,0,0h0c-.1-.2-.1-.5,0-.6,0,0,0,0,0-.1-.2-.3-.5-.7-.6-1-.2,0-.4.4-.4.6.2.4-.6.2-.3-.1v-.6c0-.4.3-1.2,0-1.5-.1,0-.2,0-.3-.1,0,0,0,0,0,0h0s0,0,0,0c.2-.2.4-.2.8,0,.2-.2.4-.3.6-.1,0,0,0,0,0,0,.2.2.8,1.1.4,1.4-.2.1,0-.4-.2-.3,0,.7.1,1.8.4,2.4.2.3.7.5.9.7.5,0,.4.4,0,.3Z"/>
  <path class="st115" d="M38,12.5c-.3,0-.4,0-.6.4,0,1.1-1.1,1.1-.7,0,0-.1-.1-.3-.1-.4,0,0,0,0,0,0,0,0,0,0,0,0,0,0,0,0,0,0,0,0-.1,0-.2-.2,0,0,0,0,0-.1,0,0,0,0,0,0,0,0,.2-.1.4-.1,0,0,0,0,0-.1h.4c0-.2-.3-.3-.3-.5-.1-.4.1-.9.6-.8.5.1.5.9,0,1.2.5,0,.5.5.7.9Z"/>
  <path class="st8" d="M35.8,9.7s0,0,.1,0c-.2.4,0,.3,0,.3,0,0-.1,0-.2,0-.1,0-.2-.3,0-.4Z"/>
  <path class="st8" d="M35.3,7.4c.6.7.9,1.1.8,2,0,.2-.1.2-.2.3,0,0,0-.1,0-.2,0,0,0,0,0,0,.1-.4.1-.6,0-.9,0-.3-.3-.6-.6-1h0s0,0,0,0c0,0,0,0,0,0,0,0,0,0,0,0,0,0,0,0,0,0Z"/>
  <path class="st8" d="M37.1,5.3v.2c-.3,0-.5.2-.5.5,0,0,0,0,0-.2,0-.3.3-.5.6-.5Z"/>
  <path class="st73" d="M43,20c0,1.2.2,2.3.2,3.5h-.2c-.1-1.3-.2-2.5-.3-3.7,0-.1.1-.2.2-.2-.2-.4-.3-.7-.3-1,0,0,0-.2-.2-.2-.2,0-.7.2-.4-.2,0,0,.2,0,.1,0,0,0-.1,0-.2,0s0,0,0,0c-.2,0-.2-.1-.3-.2,0,0,0,0,0,0h.3s-.1-.2-.2-.3c.6,0,.5-.7,1.2-.5,0,.1,0,.3,0,.4-.1,0-.5-.2-.4,0,.2.3.6,0,.8,0-.3.7-.9.3,0,.9,0,.2,0,.2-.2,0-.2.2,0,.3,0,.4,0,.4.5,1,0,.9Z"/>
  <path class="st118" d="M22.4,18.6c0,0-.6.3-.6.3l.3-.4c0,0,.1.1.3.2Z"/>
  <path class="st118" d="M22.4,20.4c0,0,0,.1,0,.2,0,0,0,0,0,0,0,0,0,0,0,0,0,0,0,0-.1,0,0,0,.1-.1.2-.2Z"/>
  <path class="st106" d="M33.9,4.5c-.8.5-1.5.1-1.9-.7-.1-.3-.1-.6,0-.9,0-.2.1-.4.3-.6,0,0,.1,0,.2,0,0,.1-.1.3-.2.4-.1.4-.1.8.2,1.2.4.4.6.4,1.2.4.2,0,.7-.2.2.1Z"/>
  <path class="st24" d="M40.1,13.3s0,0,0,0c-.2,0-.5,0-.7,0,0,0,0,0,0,0,0,0,.3,0,.3-.2-1.5-.5.2-1.7.5-.8.2.5-.2.5-.3.6,0,0,0,.2.2.3Z"/>
  <path class="st35" d="M24.8,17.2h0c-.5.3-1,.7-1.5.9-.2,0-.4.2-.6.3-.1.2-.2.1-.2,0,.6-.4,1.2-1.1,2-1.3,0,0,.2,0,.3,0,0,.2-.1.2,0,.3Z"/>
  <path class="st20" d="M26.5,14.5c0-.3,0-.6,0-.9-.1.2-.7.5-.8.6-.1.4.1,1,0,1.4,0,.2-.3.5-.2.7h0c0,0,.1,0,.2,0-.2.1-.3.1-.5.3,0,0,0,0,0,0,0,0,0,0,0,0,0,0,0,0,0-.2,0,0,0-.1,0-.2,0,0,0,0,0,0,0,0,0,0,0,0,0,0,0,0,0,0,0,0,0,0,0,0t0,0s0,0,0,0c0,0,.1,0,.2,0,.2-.1,0-1.4,0-1.7,0-.2.4-.2.3-.4-.1-.1-.8,0-.9,0,0,0,0,0,.1,0,.1-.1-.1,0-.2-.4,0-.3,0-.6.5-.5.2,0,.3.2.4.3,0,.3-.2.5-.3.7h0c.6.1.7.1.9-.3,0,0,0,0,0-.1,0,0,0,.1,0,.2,0,0,.2,0,.2,0,0,.3,0,.9-.2,1.2Z"/>
  <path class="st5" d="M37.3,5.6c0,.5-.4.7-.8.3,0,0,0,0,0-.2,0-.3.3-.5.6-.5,0,.1.2.2.3.3Z"/>
  <path class="st70" d="M24.5,14.2l-.2.9c.1,0,.1-.3.2-.5s.1-.2.2-.2l-.2,1.1c-.2-.1-.3,0-.3-.4s.1-.6.3-.9Z"/>
  <path class="st62" d="M38,12.7c0,.1.4.4.2.5,0-.1-.2-.3-.3-.6h.2c0,0,0,0,0,0Z"/>
  <path class="st62" d="M39.5,13.5c-.2,0-.7,0-.8,0,.2-.2.4-.2.8,0Z"/>
  <path class="st62" d="M39.5,13.4h0c0,0,0,0,0,0Z"/>
  <path class="st40" d="M22.7,18.4s0,0,0,0c-.1,0-.2.1-.3.2,0,0-.6.3-.6.3l.3-.4c0,0,.2-.1.3-.2h.2c0,.1,0,.1,0,.2Z"/>
  <path class="st93" d="M43.1,18.5c.2.1.5.3.5.5-.3,0-.5-.2-.7-.4,0,0,.1,0,.2,0Z"/>
  <path class="st68" d="M37,24.9c.2-.2.4-.3.6-.5,0,0,0,.2,0,.2,0,.2-.3.3-.5.3Z"/>
  <path class="st68" d="M37,22.7h0s0,0,0,0Z"/>
  <path class="st68" d="M36.8,23.8s0,0,0,0c0-.3.3-.4.6-.2.1-.2.2-.5.1-.8h.1c0,.1,0,.6,0,.8-.2.3-.4,0-.5,0,0,0-.2.2-.2.2Z"/>
  <path class="st68" d="M38.2,23.8c.7,0,3.3.3,1.4,1.1-.4.2-.8.3-1.3.2-.4,0-.7-.2-.7-.7,0,0,0,0-.1,0,0,0,0-.1.1-.2.2,0,0,.8.8.8.3,0,1.2-.3,1.5-.5,0,0,.2,0,.1-.2,0,0-.8-.2-.9-.3-.4,0-1.8.2-.9-.7.6-.5,1.4,0,2.1.2h-.1c-.4,0-1.9-.6-2,.2Z"/>
  <path class="st68" d="M41.1,26.1c0,.2,0,.5-.3.6-.2,0-.2,0-.3,0,0,0,.1-.1.3-.1,0-.2.2-.4.3-.4Z"/>
  <path class="st68" d="M40.7,22.1c0-.3.2-.8.4-1.1,0,.4-.2.7-.1,1.1,0,.3.2,0,.4,0,0,.8-.7.7-.7,0Z"/>
  <path class="st68" d="M41.4,20.3c.1,0,.2,0,.4,0,0,0-.2,0-.4,0Z"/>
  <path class="st68" d="M42.2,20.7c0,0-.1,0-.2-.2,0,0,.1.1.2.2Z"/>
  <path class="st68" d="M41.2,24.8h0,0s0,0,0,0Z"/>
  <path class="st68" d="M42.4,24.1s0,0,0,0c-.2,0-.5-.1-.7-.2.2,0,.5.1.7.2Z"/>
  <path class="st39" d="M35.4,20.4c0-.7-.3-1.5-.3-2.1,0,0,0,0-.1,0s0,0,0,0c0,0,0,0,0,0,0,0,0,.2,0,.3h0c0,.2,0,.5.2.7,0,0,0,.1,0,.2,0,0,0,0,0,0,0,0,0,0,0,0l.2,2c0,0,0,.2,0,.3h0c0,.2,0,.4,0,.6,0,.5,0,.9.1,1.3,0,0,0,0,0,0,0,.3,0,.5.1.8-.3-1.4-.1-2.9-.3-4.4ZM36.4,23.6c0,0,0-.2,0-.3,0,0,0,0,0-.1h0s0,0,0,0c0,0,0,0,0,0,0,0,0,0,0-.1,0,0,0,0,0,0-.1-.3-.4.3-.2.8ZM36.1,18.8c-.3.3,0,.6.3.9v-.2c0,0,.1,0,.2.1s.1,0,.2,0c0-.2-.4-.8-.6-.9ZM36.8,23.2s0,0-.1,0c0,0,.1,0,.1,0,0,0,0,0,0,0h0s0,0,0,0ZM36.9,22.7h0s0,0,0,0h0ZM36.8,20.7c0-.3,0-.7,0-1.1v.4c0,0,0,0,0,0,0,0,0,0,0,.2,0,0,0-.2,0-.3,0,0,0,0,0,0,0-.1-.1-.2-.2-.3.2.4.2.8.2,1.3,0,0,.2-.1.3-.2ZM36.7,20.6s0,0,0,0h0ZM36.7,23.7c0-.1-.2-.2-.4-.2,0,.2.2.3.4.3,0,0,0,0,0,0ZM36.9,25c-.5.4-.9.3-1.3-.2-.2.7,1.3.9,1.4.2,0,0,0,0,0,0ZM38.8,18.5c-.2,0-.4.6-.4.8h0c0,0-.2-.3-.2-.3-.4-.7-1-.2-.6.2,0,0,.3,0,.4.2.1.1.2.4.3.6,0,.1,0,.2.2,0,.3-.2.2-.9.3-1.3.6.6.5-.5,0-.3ZM40.9,19.9c0,0,.2.1.3,0l-4.6,1.9c1.3-.6,2.8-1.2,4.2-1.7l.2-.3c0,0-.1,0-.2,0-1.2.4-2.7,1-3.9,1.6-.3.2-.9.3-.9.8l5.8-2.3v-.3s-.7.2-.9.3ZM41.4,20.3c.1,0,.3,0,.4,0-.1,0-.2,0-.4,0ZM42,20.6c0,0,0,.2.2.2,0,0,0-.1-.2-.2ZM42.5,19.5v.2c.2,0,.2-.1,0-.2ZM42.5,20.6v.4c.2-.1.2-.3,0-.4Z"/>
  <path class="st28" d="M43,25.7c0,0,0,.3-.1.2l-.3-5v-.4c0-.3,0-.7,0-.9v-.2c0-.3,0-.6,0-.9,0-.2,0-.2.2-.2.1.2.5,1,.4,1.2,0,0-.2,0-.2,0-.1.2,0,.8.1,1.1,0,.8,0,1.8.3,2.6,0,.8,0,1.5-.2,2.2Z"/>
  <path class="st3" d="M28.8,27.2s0,0,0,0c0,0-.2,0-.2,0-.1,0-.1,0-.2,0-.4-.4,0-1.1,0-1.5,0,0,.1,0,.2,0,0,.3-.2.6-.2.9,0,.3.2.2.3,0,0,.2,0,.3,0,.4Z"/>
  <path class="st117" d="M29.5,16c-.3,0-.8.2-1.2.3.4-.1.8-.2,1.2-.3Z"/>
  <path class="st117" d="M30.3,16c-.1,0-.3,0-.4,0,0,0,0,0,0,0,0,0,0,0,0,0h0c0,0,.1,0,.2,0,0,0,.2,0,.2.2Z"/>
  <path class="st117" d="M31.6,15.9c-.4,0-.9,0-1.3,0,.3,0,.6,0,.9,0,0,0,0,0,.1,0h0c0,0,.2,0,.3,0Z"/>
  <path class="st117" d="M31.7,15.9s0,0,0,0c0,0,0,0,0,0Z"/>
  <path class="st117" d="M35.4,16c-1.2-.1-2.6-.2-3.8-.2.6,0,1.2,0,1.8,0h0c.2,0,.3,0,.5,0,.5,0,1,0,1.5.2Z"/>
  <path class="st117" d="M39.9,17.1c-1.3-.5-3.1-.9-4.5-1,0,0,0,0,.1,0,0,0,0,0,0,0,.1,0,.3,0,.4,0h0c1,0,2.9.6,3.7.9l.2.2Z"/>
  <path class="st117" d="M40.5,17.3c-.2,0-.5-.2-.6-.3,0,0,.2,0,.3,0,0,0,0,0,0,0,0,0,.1,0,.2.1t0,0s0,0,0,0Z"/>
  <path class="st29" d="M31.4,19.2l-.2-.2c.2,1.3.4,3.1.4,4.4,0,.2,0,.6,0,.8-.1.4-1.3.3-1.3,0s.5-.7.4-1.2c0-1.1-1.1-1.2-1.3,0,0,.4.1.8-.2,1.1,0,0,0,0,0,0,0,0,0,0-.2,0,0,0,0,0,.1,0,.1,0,.2,0,.2,0,0,0,.1-.2.1-.3-.1-2.7,1.7-1.2.5.4,0,.4.6.5.9.4.3,0,.5-.1.6-.3,0,0,0-.2.1-.3h0c0-.1,0-.2,0-.4,0-1.3-.1-3.3-.4-4.5ZM30,20.8c-.1,0-.2.2-.3.2-.1,0-.2-.2-.4-.2-.1,0-.2,0-.3,0,.4.3.8.4,1,0,.4-.2.7.9-.2.3-.2.3-.5.3-.8.1h0c.2.2.4.3.5.3.2,0,.3-.3.4-.3s.3.3.5.2c.4-.3,0-1-.4-.8ZM28.9,24.2c0,.1.1.2.2,0,0,0-.1,0-.2,0Z"/>
  <path class="st118" d="M23,21.3c0,0,0,.1.2.2,0,0,0,0,0,0,0,0-.1,0-.1-.2Z"/>
  <path class="st118" d="M23.6,20.7c0,0-.1,0-.1,0h0s0,0,.1,0Z"/>
  <path class="st118" d="M24.8,23.3c-.2,0-.6-.2-.7-.3,0,0,.1-.5.1-.5.4-.3,1,.5.5.8Z"/>
  <path class="st118" d="M23.7,20.9l.3-.5h0c0,.1,0,.2,0,.3.4,0,.6,0,.6.3.1-.2.3-.3.4-.3-.2.4-.7.8-1.2.7,0-.2.5-.2.6-.4.1-.3-.7,0-.8-.1Z"/>
  <path class="st117" d="M23,20h0s0,0,0,0Z"/>
  <path class="st117" d="M23.6,20.7c0,0-.1,0-.1,0h0s0,0,.1,0Z"/>
  <path class="st117" d="M24.2,19s0,0,0,0c0,0,0-.1,0-.2,0,0,0,.1.1.2Z"/>
  <path class="st117" d="M24.4,19.5s0-.1,0-.2c0,0,0,.1,0,.2Z"/>
  <path class="st117" d="M24.1,20.5h0c.4-.2,1.1-.2,1.1.3-.3-.2-.5-.3-.9-.2h0Z"/>
  <path class="st117" d="M26.2,20.1c-.1,0-.2,0-.2,0v-.4s.1,0,.2,0c0,0,.3-.1.3,0,0,.2,0,.5-.3.5Z"/>
  <path class="st117" d="M26.5,20.7s-.1,0-.2,0c0,0,.1,0,.2,0Z"/>
  <path class="st26" d="M26.7,24.2c-.4.5-1,.6-1.2,1.2-.1.4-.3,1,0,1.3,0,.2,0,.2-.2.3-.5-.6,0-1.2,0-1.8-1.1.5-2.5.9-3.2-.4-.4-.6-.4-1.5,0-2.1-.5,2.2,1.1,2.6,2.9,1.9.3-.1,1.4-.8,1.6-1.1.1-.3-.7-1.4-.7-1.9s.4-.4.6,0c.3.4,0,.3,0,.6,0,.2.3.5.3.8,0,.5,0,1-.4,1.4Z"/>
  <path class="st71" d="M29.5,24.7c0,0,0,.1-.2.2,0,0,0,0,0,0-.5.2-1.1.4-1.5.8-.8.3-1.5,2.4-2.5,1.3,0-.2,0-.3.2-.3,0,0,.2,0,.3,0,.5,0,1.2-1.3,1.7-1.7.4-.3,1-.5,1.4-.8,0,0,.1,0,.2,0,0,0,.1,0,.2,0,0,0,0,0,0,0,0,0,.2,0,.2,0,0,0,.1.2,0,.5Z"/>
  <path class="st102" d="M27.8,19.1l.2,2.3h-.2c0,.5,0,1.1,0,1.8l-.2.2-.4-5.3c0,0,0,0,0-.1,0,0,0,0,0-.1.1-.2.3,0,.4.3,0,.2.1.7.3.9,0,.2-.2,0-.3.2Z"/>
  <path class="st46" d="M27.9,24c0,.1,0,.3-.2.3,0-.3,0-.7,0-1,0-.7,0-1.1,0-1.8,0-.8,0-1.6,0-2.3l.2.8c0,.5.1,1,.2,1.4,0,.9.2,1.9,0,2.7Z"/>
  <path class="st116" d="M23.1,20s0,0,0,0h0Z"/>
  <path class="st116" d="M23,21.3c0,0,0,.1.2.2,0,0,0,0,0,0,0,0-.1,0-.1-.2Z"/>
  <path class="st116" d="M23.6,20.7c0,0-.1,0-.1,0h0s0,0,.1,0Z"/>
  <path class="st78" d="M30.4,21.7c-.2,0-.4-.2-.5-.2s-.2.3-.4.3c0,0-.3-.2-.5-.2-.2-.2,0-.4,0-.6,0,0,.1-.1.3,0,.1,0,.2.3.4.2,0,0,.2-.2.3-.2.5-.1.8.5.4.8Z"/>
  <path class="st29" d="M27.4,17.8c0,0,0,.1-.1.3h0s0,0,0,0c0,0,0,0,0,0,0,0,0,0,0-.1Z"/>
  <path class="st122" d="M22.2,22c0,0,0-.1,0-.2,0-.2,0-.3,0-.4,0,0,0-.1.1-.1,0,0,0,0,0,0,0,0,0,0,0,0,0,0,0,.1.1.3,0,0,.1.2.2.3l.3-.3c.2.6-.7,1.1-.8.4Z"/>
  <path class="st85" d="M22.4,21.6s0,0,0,0c0,0-.1-.2-.2,0,0,0,0,.5,0,.6-.3-.5,0-1,0-1.5,0,0,.1-.1.2-.2h.2c-.2.4-.2.7-.2,1.2Z"/>
  <path class="st118" d="M26.3,20.8c0,0,.1,0,.2,0,0,0-.1,0-.2,0Z"/>
  <path class="st44" d="M35.9,8.6c0,.1,0,.2-.2.3,0,0,0,.1,0,.2-.1.5-.5.6-1.2.4h-1.4c-.5-.2-.8,0-.9.3-.2,0-1.3.3-1.4.2-.2,0-.3-.2-.4-.4,0-.1,0-.2,0-.4,0-.4.1-.9.4-1.3h0c.2-.3.4-.5.5-.7.3-.2.7-.5,1-.6v.2c-1,1,.1,1,.9.9.6,0,1.2-.1,1.7-.3-.5-.3-.9-.7-1.2-1.2.6.2,1.1.6,1.5.9v.2c0,0,.1,0,.1,0h0c0,.1,0,.1,0,.1.2.2.6.6.6,1Z"/>
  <path class="st69" d="M30.2,8.3c0,0,0-.1.1-.1,0,0,0,.1-.1.1Z"/>
  <path class="st69" d="M36.7,11.5c-.2,0-.2.1-.3.2,0,0,0,.2-.1.2,0,0,0,0,0,0,0,0,0,0,0,0,0,0,0,0,0,0,.2,0,0,.7-.3.6-.2.1-.4-.3-.2-.4,0,0,0,0,0-.1h0c0-.1,0-.2,0-.4,0,0,0,0,0,0,0,0,0-.1,0-.2.2-.4.2-.8,0-1,0,0,0,0,0,0,0,0,0,0,0,0,0,0,0,0,0,0h0s0,0-.1-.2c-.1.2-.6.2-.7,0-.2.2-.5.3-.5,0-.2-.2-.3-.2-.4,0,.2.2,0,.5-.1.5,0,0-.2,0-.3-.1,0,0,.1-.2.1-.3,0,0,0,0,0,0,0-.1,0-.2,0-.3,0,0,0-.1,0-.2h-.2c-.6-.2-.6.2-.3.6,0,.2,0,.5-.4.7-.1.4-.3.7-.5.8h0c0,0-.2,0-.3,0-.2,0-.3-.3-.5-.6h0c-.2,0-.2,0-.2-.2,0,0,0,0,0-.2.8-.4-.4-1-.4-.2h-.2c-.2.1-.4-.2-.2-.4,0,0,0,0,0,0-.1,0-.2-.2-.3-.3l.4-.2c0-.1-.1-.3-.1-.4,0-.1,0-.2,0-.4,0-.4,0-.7,0-1.1.1-.4.5-.6.9-.9,0,.6-.8,1-.9,1.5,0,.5,0,1,.6,1,.3,0,.3-.1.5-.1.2,0,.3,0,.6,0,.2,0,.3-.5.5-.5.2,0,.4.1.5.1.4,0,1,0,1.4,0s1.1.3,1.2-.4h.2c0,.3,0,.4,0,.6,0,0,0,.2,0,.2-.2.4,0,.3,0,.3,0,0-.1.2,0,.3,0,0,.4,0,.5.2,0,.2-.1.4-.1.5,0,.1.2.3.2.5v-.3c.1,0,.3.3.3.3Z"/>
  <path class="st45" d="M35.1,7.5c-.1.1-.2.2-.4.3-.6.1-1.9.3-2.4.3-.3,0-.7-.3-.6-.6,0-.1.5-.6.6-.7.1-.1.3-.2.4-.3h.1c0-.1,0-.2,0-.2,0,0,0,0,0,0s0,0,0,0c0-.2.1-.3.2-.3,0,0,0,0,0,0,0,0,.2.1.2.3.1,0,.1,0,.3.2.5.4,1,.8,1.5,1.2Z"/>
  <path class="st110" d="M29.9,10.1s0,0,.1,0c0,0,0,0,0,0-.2,0-.2-1.9,0-2.1,0-.4-.2-1.3,0-1.7,0,0,0,0,0,0-.1.2-.1,1.1,0,1.3,0,.1,0,.2.1.3,0,0,0,0,0,.1s0,0,0,0c0,0-.1.2-.2.4,0,.2,0,1.5,0,1.6Z"/>
  <path class="st110" d="M30.2,8.3c0,0,0-.1.1-.1,0,0,0,.1-.1.1Z"/>
  <path class="st110" d="M30.3,9.6c0-.1,0-.2,0-.4,0,.1,0,.2,0,.4Z"/>
  <path class="st100" d="M36,9.4c0,.2-.1.2-.2.3,0,0,0,0-.1,0-.2,0-.1-.3,0-.6,0,0,0-.1,0-.2,0-.3.1-.4,0-.7-.2-.3-.6-.4-.6-.9,0,0,.1,0,.2,0,.6.7.9,1.1.8,2Z"/>
  <path class="st17" d="M29.3,5.9c0,0-.1,0-.2-.1,0,0,.1,0,.2.1Z"/>
  <path class="st17" d="M30,6.4c0,0-.1-.1-.2-.3-.2,0-.4,0-.5-.1.4,0,.6,0,.7.4Z"/>
  <path class="st17" d="M30,5.4h-.7c.2-.2.5-.2.7,0Z"/>
  <path class="st17" d="M30,5.4h0c0,0,0,0,0,0Z"/>
  <path class="st67" d="M33.3,6.2c0,0-.3-.2-.3-.2,0,0,0,.2-.1.3,0,0-.2,0-.2,0,.3-.5.3-1,.4-1.5.3.2,0,.6.1.8,0,.1.2.3.1.6Z"/>
  <path class="st43" d="M32.5,3.9c-.4-.5-.3-.6-.2-1.2,0,.4,0,.8.2,1.2Z"/>
  <path class="st43" d="M32,2.9v.9c0-.2-.2-.2-.2-.5s.1-.3.2-.5Z"/>
  <path class="st42" d="M36.2,15.2c-.4-.1-.7-.2-1-.3-.2,0-.3,0-.4-.1,0,0,0,0,0,0h0s0,0,0,0h0c0-.2,0-.3.1-.4v-.2c0,0,0,0,.1,0-.1,0-.1.2,0,.4h0c0,.1,0,.2,0,.2,0,0,0,0,0,.1,0,0,0,0,0,0,0,0,0,.1,0,.1,0,0,.2,0,.2-.1,0-.4.1-.8.2-1.2,0,0,0,0,0,0,0,0,0,0,0,0,0,0,0-.2,0-.3h.2c.1.1.5,0,.3-.3-.1,0-.1-.3-.2-.4,0,0,0,0,0-.2h0c0-.1,0-.2,0-.3,0,0,0,0,0,0,0,0-.1-.2-.3-.3h0s0,0,0,0c0-.2,0-.2-.2,0,0,0-.2-.1-.3-.1h0s0,0-.1,0h0c0,0-.1,0-.2.1-.1-.2-.4-.2-.8-.2,0-.2-.2-.4-.3-.4,0,0-.2,0-.3,0,0,0,0,0,0,0,0,0,0,0,0,0,0,0,0-.1,0-.2,0,0,0,0,0,0,0,0,0-.2,0-.3h0c0,0,0-.2,0-.2-.2-.2-.5-.2-.8-.2-.4.4.2.8.2.9s-.4.3-.4.4c-.2.2-.2.6-.4.8-.5.2,0-.4-.7-.5,0,0,0,0,0,0,0,0,0,0-.2,0,0,0-.1,0-.2.1,0,0-.1,0-.2.1,0,0,0,0,0,0,0,0-.1,0-.2,0h0c-.1,0-.2.3,0,.4,0,.2,0,.3,0,.4h0c0,0,0,.2,0,.2h0s0,0,0,0c0,0,0,0,0,0h0c0,.1,0,.2,0,.2,0,0,0,.2,0,.2t0,0c0,.1,0,.2.1.4,0,0,0,.2,0,.3,0,.2,0,.4,0,.6,0,0,0,0,0,.1,0,0,0,0,0,0,0,0,0,0,0,0,0,0-.2.1-.4.1,0,0,0,0,0,0,0,0,0,0-.2,0,0,0,0,0-.2.1-.2,0-.4,0-.5,0h-.3c0,0,0,0,0-.2h0c0-.1,0-.2,0-.3h0c0-.3-.4-.5-.5-.2.2,0,.4.8.4,1,0,0-.2,0-.3.2,0,0,0,0,0,0,0,0,0,0,0,0,.5,0,.3.1.4.3.4.4.8.1,1.4.2,0,0,0,0,0,0,0,0,.1,0,.2,0h0c0,0,.1,0,.2,0,0,0,.1,0,.2-.2,1.5,0,3,.2,4.5.2.3,0,.5.1.7.2.2,0,.4,0,.5,0h0c.3,0,.4-.3.2-.8ZM34.3,13.5c0,.2-.6.2-.8.2-.2,0-.1-.3-.1-.4,0,0,0,0,0-.1,0-.2-.1-1.1,0-1.2.2-.2.8,0,.9.2,0,.4,0,.7,0,1,0,.1,0,.3,0,.4ZM32,12h0c0,0,.1,0,.1,0,.3,0,.2.3.2.6,0,.2,0,.3,0,.5.1.3-.5.2-.6,0,0,0,0-.2,0-.2.2-.2-.1-.7,0-.9,0,0,.2,0,.3,0Z"/>
  <path class="st112" d="M35.7,14.9c0,0,0-.1.1-.1,0,0,0,0-.1.1Z"/>
  <path class="st112" d="M40.2,16.3c0,0,.2,0,.2,0h-.2s0,0,0,0Z"/>
  <path class="st112" d="M40.4,17.1c0,0-.1,0-.2,0,0,0,0,0,0,0-.1,0-.2,0-.3,0-1.3-.5-3.1-.9-4.5-1-.5,0-1-.1-1.5-.2-.2,0-.3,0-.5,0h0c-.6,0-1.2,0-1.8,0,0,0,0,0,0,0h-.3s0,0,0,0h0c-.3,0-.7,0-1,0,0,0,0,0,0,0-.1,0-.3,0-.4,0,0,0,0,0-.1,0,0,0,0,0,0,0,0,0,0,0,0,0,.2-.1.3-.4.5-.4.2,0,.3.2.5.2.2,0,.4,0,.6,0,1.4,0,2.8.2,4.2.3.3,0,.6.2.6-.3,0-.5-1.3-.4-1.4-.5,0,0,0-.1,0-.2,0,0,0,0,0,0,0,0,.1,0,.2,0,0,0,0,0,0,0h.3c.1,0,.3,0,.3.2.1,0,.2,0,.3,0,.1,0,.3,0,.3,0,0,0,.2,0,.2,0,0,0,0,.1,0,.2,0,0,0,0,0-.1,0,0,.1,0,.2,0,0,0,0,0,.1,0,0,0,.3,0,.3,0,.1-.1-.2-1.1-.2-1.4-.2.1-.2.5-.3.8,0,0,0,0,0,.1,0,.2,0,.3-.1.4,0,0,0,0-.1,0,0,0,0,0,0,0,0-.1,0-.3,0-.4,0,0,0,0,0,0,0,0,0-.2,0-.3-.1-.2-.1-.4-.1-.6,0,0,0,0,0,0-.2-.2,0-.5,0-.7,0,0,0,0,0,0,0-.1,0-.3,0-.4,0,0,.3,0,.3.4,0,.2-.3.6,0,.7.4.1.3-.5.4-.7,0-.2.4-.3.3-.6,0,0,.4.2.4.3,0,0,0,.1,0,.2,0,.1.4.4.2.5-.2,0-.3-.3-.4-.3v.5c-.3.5,0,1.4,0,2l1.3.4v-.6c0,.2,0,.7.2.8,0,0,.2,0,.2,0,0,0,0,.2.2.2,0,0,.6.4.8.4,0,0,0,0,0-.1,0,.2.3.9,0,.8Z"/>
  <path class="st89" d="M25.9,16.2c-.1,0-.2,0-.2,0,0,0,.1,0,.2,0Z"/>
  <path class="st74" d="M27.3,14.8s0,0,0,0c0,0,0,0,0,0Z"/>
  <path class="st74" d="M27.4,14.8h0c0,0,0,0,0,0Z"/>
  <path class="st74" d="M27.3,15.2v-.4c0,.1,0,.4,0,.5,0,0,0,.1.2.2,0,0,0,0,0,0h0c-.2,0-.4,0-.2-.2,0,0,0,0,0,0,0,0,0,0,0,0h0Z"/>
  <path class="st74" d="M27.8,14c0,0,0,.1,0,.2-.4,0,0-.3-.4-.3,0,0,.1.7,0,.8v-.2s0,0,0,0,0,0,0,0c0-.2,0-.3,0-.4,0,0,0,0,0,0,0,0,0-.2.1-.2,0,0,.1,0,.2.2Z"/>
  <path class="st74" d="M28,14.2s0,0,0,0c0,0,0,0,0,0Z"/>
  <path class="st27" d="M28,12.8v.5c0,0,0,.1,0,.2h0s0,0,0,0c0,0,0,.1,0,.1h-.2c0,0,0,0,0,0,0,0,0,0,0,0,0,0,0,.1,0,.2,0,0,0,.2-.1.2,0,0,0,0,0,0,0,0,0,0,0,0,0,.1,0,.3,0,.4,0,0,0,0,0,0,0,0,0,.2,0,.2h0c0-.4,0-1,0-1.3,0-.2.2,0,.2-.2,0-.3-.6-.5-.6-.8v.3s0,0-.1,0c0,0,0-.1,0-.2,0,0,0-.2-.1-.2,0-.3,0-.4,0-.6.3-.4,1.1-.2.9.7-.2.2,0,.5.1.2h.2c.1,0,.2,0,.2.1Z"/>
  <path class="st56" d="M27.4,15.5c-.1,0-.2,0-.3,0,0,0-.3.4-.3,0,0-.2,0-.5,0-.7h.3c0,0-.1.5.1.4,0,0,0,0,0,0h0s0-.3,0-.3h0s0-.3,0-.3c0,.1,0,.4,0,.5,0,0,0,.2.1.2h0Z"/>
  <path class="st33" d="M25.3,15.8s0,.6,0,.7c0,0-.1.1-.3,0,0-.2,0-1.2.3-.8Z"/>
  <path class="st42" d="M29.5,16c-.3,0-.8.2-1.2.3.3-.2.8-.2,1.2-.3Z"/>
  <path class="st99" d="M28.8,6.2v.2s0-.2,0-.2c0,0,0,0,0,0s0,0,0,0Z"/>
  <path class="st65" d="M30,2.1c0,0,0,.2-.2.3-.9.7-1.4,1.8-1.9,2.8-.1.3-.2.7-.3,1,0,0,0,.2,0,.3,0,.2,0,.4,0,.6h-.1c-.4-.3-.3-1.1,0-1.5-.2-.3-.2-.6.2-.9,0,0,0-.5,0-.5-.2-.3-1.2,1.3-1.2,1.5h-.3c0,0,.2-.8.2-.8.4-.8.6-1.3,1.4-1.9,0,0,0,0,.2-.1.2-.2.5-.4.8-.6,0,0,0,0,0,0,.4-.3.9-.6,1.1-.5.2,0,.3.1.3.2Z"/>
  <path class="st87" d="M29.9,11.3c0,0,0,.1,0,.2h0s0,0,0,0h0s0,0,0,0c0,0,0,0,0,0,0,0,0,.2,0,.3,0,0-.1.1-.3,0,0,.2,0,.3-.2.5l.2,1.1c0,.4,0,.6-.2.6-.2-.2-.4-.3-.6-.3-.2.2-.4.1-.7-.1,0,0,0,0,0,0,0,0,0,0,0-.1,0,0,0,0,0-.1,0,0,0,0,0,0h0s0,0,0,0h0c0-.1,0-.6,0-.6,0,0-.2,0-.2-.2-.2-.2-.1-.4.2-.4h0c0-.2,0-.3.1-.4-.3-.4-.3-1.1.1-1.1,0,0,.2,0,.3,0,.1,0,.3,0,.4.2.4,0,.3.6,0,.7,0,0,0,0,0,.1,0,0,0,0,0,0,.1,0,.3,0,.5-.2,0-.1.2-.2.2-.1,0,0,0,0,0,0Z"/>
  <path class="st49" d="M28,12.1s0,0,0,0c0,.1-.1.3-.2.4,0,.1-.1.2,0,.4-.1,0-.2,0-.2,0,0,0,0,0,0,0,0,0,0-.1-.1-.2,0,0-.2,0-.2,0,0-.1.2-.3.2-.4.2-.7-.6-.8-.7-.4,0,.2,0,.4,0,.6-.3-.1-.2-.5-.3-.7-.2-.4-.5-.8-.6-1.3-.7-1.9-.4-3.8.5-5.5.1,0,0,.6,0,.8v.2c-.3,1.2-.2,2.3,0,3.5-.1.6.2,1.3.6,1.8.4-.1.6,0,.6.1.2,0,.3.2.4.4,0,0,0,.1,0,.2.1-.1.2-.1.2,0Z"/>
  <path class="st119" d="M29.3,5.9c0,0-.1,0-.2-.1,0,0,.1,0,.2.1Z"/>
  <path class="st119" d="M30.3,10.5c0,0,0,0,0,0,0,0,0,0,0,0-.2,0-.3,0-.4,0,0,0,0,0,0-.2h-.2v-4c-.4-.2-.5.1-.3.5-.2.8-.2,1.6,0,2.4v.6c0,.2,0,.3,0,.4.1,0,.2,0,.2.1,0,0,0,.1,0,.2,0,0,0,.1,0,.2,0,0,0,0,0,0,0,0,0,.1-.1.2,0,0,0,.1,0,.2,0,0,0,.2-.1.2,0,0,0,.1-.1.1,0,0,0,0,0,0,0,0,0,0,0-.1.2-.4,0-.4,0-.7-.1-.6,0-1.5,0-2.3,0-.2-.2-.3-.2-.4,0-.3.3-.8.3-1.4,0-.3-.2-.3-.2-.4v-.2s0,0,0,0,0,0,0,0h0s0,0,0,0c0-.1.3-.2.5-.2.4,0,.6,0,.7.4-.1.2-.1,1.1,0,1.3,0,.1,0,.2.1.3,0,0,0,0,0,.1s0,0,0,0c0,0-.1.2-.2.4,0,.2,0,1.5,0,1.6,0,0,0,0,.1,0,0,0,.3,0,.3,0,0,0,0,.2,0,.3Z"/>
  <path class="st48" d="M28.3,11.7s-.3.3-.3.5h0c0,0-.1,0-.2,0,0,0,0-.1,0-.2,0,0,0,0,0-.1-.2-.2-.2-.3-.3-.5,0-.2,0-.3,0-.4,0,0,0,0,0,0h0c0-.1.2-.3.3-.4,0,0,0,0,0,0,0-.1,0-.2,0-.3-.2.1-.3,0-.4-.3-.1-.2-.4-2.4-.3-2.5,0,0,0-.1.2-.1,0,0,0,0,0,0,0-.6.3-1.4.5-1.9-.3,1.2-.4,2.5,0,3.8,0,.3.6,1.4.6,1.5,0,0-.2,0-.2,0,0,0,.2,0,.3,0-.4,0-.7.5-.4.9,0,.1.2.1.3.2Z"/>
  <path class="st15" d="M29.8,2.4c0-.5-.2-.4-.5-.3-.5.4-1.1.7-1.6,1.1,1-1.1,2.8-1.9,4.2-2.1.1,0,.5,0,.6,0-.9.1-1.9.6-2.6,1.2Z"/>
  <path class="st119" d="M28.8,5.3s0,0,0-.2c0,0,0,.1,0,.2Z"/>
  <path class="st119" d="M30,5.4h-.7c-.2,0-.2.1-.5-.2,0-.2,0-.6,0-.7,0,0,.3-.4.5-.5,0,0,0,0,0,0s0,0,0,0h0c.1,0,.3.2.3.3.4.4.2.6.2,1.1Z"/>
  <path class="st123" d="M28.9,5.4s0,0,0,0c0,0,0-.1,0-.2,0,0,0,.1,0,.2,0,0,0,0,0,0Z"/>
  <path class="st123" d="M28.8,6.2s0,0,0,0c0,0,0,0,0,0h0Z"/>
  <path class="st123" d="M29.3,5.9c0,0-.1,0-.2-.1,0,0,.1,0,.2.1Z"/>
  <path class="st64" d="M40.2,16.3c0,0,.2,0,.2,0h-.2s0,0,0,0Z"/>
  <path class="st64" d="M40.4,16.5s0,0,0-.1c0,0,0,.1,0,.1Z"/>
  <path class="st83" d="M38.2,13.3c0,0-.1,0-.2-.1,0,0,0,0,.1,0,0,0,0,0,0,.1Z"/>
  <path class="st83" d="M38.7,13.6h0c0,0,0,0,0,0h0c0,0-.1,0-.2-.1,0,0,.2,0,.2,0Z"/>
  <path class="st25" d="M40.5,17.3c-.2,0-.5-.2-.6-.3,0-.3.3,0,.5,0,0,0,0,.1,0,.2Z"/>
  <path class="st90" d="M36.1,13.1c-.2.1-.4.2-.7.2.2,0,.5,0,.7-.2Z"/>
  <path class="st90" d="M36.6,12.4c0,.2,0,.3,0,.4,0,0,0,0,0,0,0,0,0,0,0,0,0-.1,0-.3,0-.5,0,0,0,0,0,0,0,0,0,0,0,0-.1,0,0,.4-.2.6-.1.2-.5.2-.7.4v-.3c0-.3-.2-.5-.2-.8l.5.7c0,0,0-.1.1-.2.1-.2.2-.4.3-.6,0,0,0,0,0,0,0,0,0,0,0,0,.3,0,.3.2.3.3Z"/>
  <path class="st112" d="M36.4,11.8c0,0,.1,0,.2,0,0,0,.4,0,.3.2-.3,0-.4.2-.7.3h0s-.1-.1,0-.3.2-.1.3-.2Z"/>
  <path class="st68" d="M42.5,18.7c-.1,0-.2,0-.2,0,0-.2,0-.2.2,0Z"/>
  <path class="st68" d="M42.6,18.5c0,0-.1.1-.2.2,0-.2,0-.2.2-.2Z"/>
  <path class="st116" d="M22.9,18.3c0,0-.1,0-.2.1,0,0,0,0,0,0h0c0,0,.2,0,.2-.1Z"/>
  <path class="st6" d="M33.2,25h-.1c0-.1,0-.1,0-.1h0c0-.7,0-1.4,0-2.1,0,0,0,0,0,0,0,0,0,0,0,0,0,0,0,0,0,0h0c0-.1,0-.3,0-.5,0,0,0,0,0,.1,0,.8.2,2.2,0,2.8Z"/>
  <path class="st6" d="M33,19.5c0,.9.1,1.8.2,2.6-.4-.8-.4-1.9-.3-2.7h.2c0,0-.3-.9-.3-.9v-.2c.2.2.5.9.5,1.1,0,.3-.2,0-.3,0Z"/>
  <path class="st6" d="M34.3,24.9c-.1.6-.6,1-1,1.4v-.2c.4-.4.7-.7,1-1.2Z"/>
  <path class="st6" d="M34.1,24.7c0,0,0,.2-.1.2,0-.2.1-.4.1-.7,0-.4,0-.8,0-1.2,0,.3,0,.7,0,1,0,.3,0,.5,0,.6Z"/>
  <path class="st6" d="M34.4,24.8s0,0,0,0c0-.1,0-.3,0-.4,0,0,0,0,0,0,0-.1,0-.2,0-.4,0,0,0-.1,0-.2,0-.6,0-1.2,0-1.8,0,0,0-.2,0-.3,0-.6-.1-1.1-.2-1.7,0,0,0,0,0,0,0-.5-.2-1-.3-1.5,0,.5,0,1,0,1.5h0c0,.2,0,.4,0,.5,0,0,0,0,0,0,0,.3,0,.6,0,.9h0c0,.3,0,.6,0,.8,0,0,0,0,0,0,0,0,0,.1,0,.2-.1-1.5-.4-3.3-.3-4.3,0,0,0-.4.2-.3,0,0,.3,1.2.3,1.3.1,1.1.2,2.6.3,3.8,0,.5,0,1.2-.1,1.7Z"/>
  <path class="st6" d="M34.7,26.8c-.2.6-.5-.1-.4-.5h-.1c0-.2.2-.3.3-.4,0,.2-.3,1.3.2.9Z"/>
  <path class="st6" d="M34.9,19.6v1.5c0,0-.3-2.4-.3-2.4,0-.2,0-.6.3-.4h-.1v.2c0,0,0,.2,0,.3h0c0,.3,0,.6,0,.8Z"/>
  <path class="st6" d="M35.1,22.1c0-.2,0-.7,0-1,.2.1.3.8,0,1Z"/>
  <path class="st6" d="M35.1,24.4v-2.3c0,0,.1,0,.1,0,0,.7,0,1.4,0,2.1s0,.1-.1.1Z"/>
  <path class="st6" d="M35.5,25.4c.2.2.3.3.3.5-.2-.1-.3-.2-.4-.4,0-.2-.3-.9-.3-1.1h.2c0,0,.3,1,.3,1Z"/>
  <path class="st6" d="M37,26.6s0,0,0,0c0,0,0,0,0,0Z"/>
  <path class="st3" d="M32.3,26.1s0,0,0,0c0,0,0,0,0,0,0,0,0,0,0,0,0,0,0,0,0,0,0,0,0,0,0,0,0,0,0,0,0,0h-.1Z"/>
  <path class="st3" d="M34.4,23.9c0,0,0,.1,0,.2,0,.3,0,.6,0,.8,0,0,0,0,0,0-.1.6-.6,1-1,1.4-1,.8-2.5,1.6-3.5.3-.3-.3-.2-.5-.3-.9,0-.4,0-.9.2-.3.1.7,1,1.1,1.7,1,.5,0,.8-.3,1.2-.5,0,0,0,0,0,0,.4-.2.9-.4,1.3-.8v-.2c.1,0,.2-.2.2-.2h0c0-.2,0-.4,0-.6,0-.4,0-.8,0-1.2,0,0,0,0,0-.1,0,0,0-.2,0-.3,0-.4,0-.9,0-1.3,0-.2,0-.4,0-.6,0,0,0,0,0,0,0-.1,0-.3,0-.4,0,0,0,0,0,0h0c0,0,.1,0,.2,0,0,0,0,0,0,0,0,0,0,0,0,0,0,.2.2.9.2,1.7,0,0,0,.2,0,.3,0,.6,0,1.3,0,1.8Z"/>
  <path class="st95" d="M39.2,25.4h0c0,0-.1.2-.2.2,0,0,0-.1,0-.2,0,0,0,0,0,0s0,0,0,0Z"/>
  <path class="st95" d="M41,24.8c-.4,0-1.4.4-1.7.6h0c.2-.4,1.1-.7,1.5-.7h.2Z"/>
  <path class="st95" d="M41.1,26.1h-.2c-.2,0-.4-.2-.6-.3.4-.2.5.1.8.3Z"/>
  <path class="st95" d="M41.2,24.8c0,0-.1,0-.2,0,0,0,0,0,.1,0h0s0,0,0,0Z"/>
  <path class="st9" d="M39,25.5h0c-.4.2-1.1.5-1.4,0,0,0-.1-.4-.3-.4,0,0-.2.3-.3.4-.4.3-.7.4-1.2.3h.2c.4,0,.7-.1,1-.4.3-.5.7-.7.9,0,.3.2.7.2,1.2,0Z"/>
  <path class="st104" d="M41.1,26.1c0,.2,0,.5-.3.6-.2,0-.2,0-.3,0,0-.1-.3-.2-.3-.3,0-.1.2-.3.2-.5.4-.2.5.1.8.3Z"/>
  <path class="st9" d="M37.9,27.4c-.2.1-.4-.3-.6-.2-.1,0-.1.4-.3.3,0,0-.5-.3-.5-.3-.1-.2.2-.7.6-.5h-.1c-.8.3.3.9.3.4-.2,0-.2-.2,0-.3,0,0,0,.1.1.2.2,0,.1-.2.2-.3.4-.3.9.5.5.7Z"/>
  <path class="st113" d="M34.8,27.1c-.6.7-.7-.3-.6-.8,0-.2.2-.3.3-.4,0,.2-.3,1.3.2.9,0,0,.1.2,0,.3Z"/>
  <path class="st58" d="M29.5,24.7c0,0,0,.1-.2.2,0,0,0-.1.2-.2Z"/>
  <path class="st58" d="M29.7,25.5v-.2h-.2v.4c0-.4,0-.9.2-.3Z"/>
  <path class="st58" d="M30,24.8c-.2-.1,0-.2-.4-.2.1-.3.6-.1.4.2Z"/>
  <path class="st91" d="M40.4,23.7c.2.3,1.9.4,2,.6,0,0-.1.5-.3.5-.2.1-.8-.2-1.1.1-.4,0-1.4.4-1.7.6h0s0,0,0,0c0,0,0,0,0,0,0,0,0,0,0,0-.2.1-.5.1-.6-.2-.4,0-.9-.3-1-.6,0,0,0-.2,0-.2,0,0,0-.1.1-.2.2,0,0,.8.8.8.3,0,1.2-.3,1.5-.5,0,0,.2,0,.1-.2,0,0-.8-.2-.9-.3-.4,0-1.8.2-.9-.7.6-.5,1.4,0,2.1.2Z"/>
  <path class="st91" d="M41.1,24.8h-.1c0,0,0,0,.1,0Z"/>
  <path class="st91" d="M41.2,24.8h0,0s0,0,0,0Z"/>
  <path class="st91" d="M42.4,24.1s0,0,0,0c-.2,0-.5-.1-.7-.2.2,0,.5.1.7.2Z"/>
  <path class="st4" d="M39.4,25.2v.2c0,0-.1,0-.1,0,0,0-.1.1-.2.2-.4,0-1.1.4-1.4,0,0,0-.1-.4-.3-.4,0,0-.2.3-.3.4-.4.3-.7.4-1.2.3-.2-.1-.3-.2-.4-.4,0-.2-.3-.9-.3-1.1v-2.3c0-.2,0-.7,0-1v-1.5c0-.1,0-.2,0-.2s.1,0,.2.2c0,0,0,0,0,0,0,.7,0,1.4.1,2.1,0,0,0,0,0,.1s0,0,0,.1h0c0,.7,0,1.3,0,1.9,0,0,0,0,0,0,0,.2,0,.3,0,.5v.3c.5.6.9.6,1.4.2,0,0,0,0,0,0,.2-.2.4-.3.6-.5.2.7.6.7,1.3.7,0,0-.4,0-.2.3.1.1.6,0,.7-.2Z"/>
  <path class="st22" d="M36.8,23.2h0s0,0,0,0c0,0,0,0-.1,0,0,0,0,0,.1,0h0Z"/>
  <path class="st22" d="M37.5,23.6c-.2.3-.4,0-.5,0,0,0-.2.2-.2.2-.2,0-.3,0-.4-.3,0-.2,0-.4,0-.5h0s0,0,0,0c0,0,0,0,.1.2.4.1.2,0,.3,0,0-.2,0-.2.2,0,0,0,0,.2.2.2.3,0-.3-.9.3-.6,0,.2,0,.7,0,.8Z"/>
  <path class="st94" d="M41.4,22.1c0,.8-.7.7-.7,0,0-.3.2-.8.4-1.1,0,.4-.2.7-.1,1.1,0,.3.2,0,.4,0Z"/>
  <path class="st117" d="M41.3,20.3s0,0,0,0c0,0-.2,0-.2,0h.2Z"/>
  <path class="st117" d="M41.4,20.3c.1,0,.2,0,.4,0,0,0-.2,0-.4,0Z"/>
  <path class="st117" d="M42.2,20.7c0,0-.1,0-.2-.2,0,0,.1.1.2.2Z"/>
  <path class="st21" d="M36.6,22.9c0,.1,0,.3,0,.4,0,0-.1-.1-.1-.2,0,0,0,0,0,0,0,0,0,0,0,0,0,0,0,0,0-.1,0,0,0,0,0,0,0,0,0,0,0,0Z"/>
  <path class="st21" d="M36.8,23.2h0c0,0,0,0-.1,0,0,0,0,0,.1,0Z"/>
  <path class="st21" d="M37.1,22.7v.4c0,0-.1,0-.2,0,0,0,0,0,0,0,0,0,0,0,0,0h0s0,0,0,0c0,0,0-.2,0-.5h0s0,0,0,0c0,0,0,0,0,0,0,0,0,0,0,0h0Z"/>
  <path class="st111" d="M41.1,24.8h0s0,0,0,0c0,0-.1,0-.2,0,0,0,0,0,.1,0h0Z"/>
  <path class="st111" d="M41.2,24.8h0,0s0,0,0,0Z"/>
  <path class="st111" d="M42.4,24.1s0,0,0,0c-.2,0-.5-.1-.7-.2.2,0,.5.1.7.2Z"/>
  <path class="st111" d="M42.4,24.1h0c0,0,0,0,0,0h0Z"/>
  <path class="st117" d="M35.9,23.5s0,0-.1,0c0,0,0,0,0,0,0,0,0,0,0,0Z"/>
  <path class="st13" d="M41.9,19.6v.3c0,0-5.9,2.3-5.9,2.3,0-.4.6-.6.9-.8,1.1-.5,2.7-1.1,3.9-1.6,0,0,.1,0,.2,0,.1,0,.9-.3.9-.3Z"/>
  <path class="st0" d="M35.6,24.8s-.1,0-.2-.1c-.2-.5-.1-1.3-.1-2,0-.2,0-.3,0-.5h0c0-.2,0-.2,0-.2s0,0,0-.1c0-.7-.2-1.4-.2-2.1h0c0,0,0,0,0,0,0,0,0,0-.1.2,0,.4,0,.9,0,1.3l-.3-2.4c0-.2,0-.6.3-.4,0,.6.3,1.4.3,2.1.1,1.5,0,3,.3,4.4Z"/>
  <path class="st52" d="M38.4,20.1c-.1.1,0,0-.2,0-.1-.2-.2-.5-.3-.6-.1-.1-.3-.1-.4-.2-.4-.3.2-.9.6-.2l.2.2c.2.2.2.5,0,.8Z"/>
  <path class="st47" d="M38.8,18.9c-.2.3,0,1.1-.3,1.3,0-.1,0-.3,0-.4,0,0-.2-.5-.2-.6l.2.2h0c0-.2.2-.7.4-.8.5-.1.6,1,0,.3Z"/>
  <path class="st51" d="M36.7,20c0,0,0,0,0,0,0,0,0,0-.1-.1,0,0,0,0,0,0,0,0-.1-.2-.2-.3-.2-.3-.6-.5-.3-.9.3,0,.6.6.6.9,0,.2,0,.3,0,.4Z"/>
  <path class="st2" d="M36.6,20.9c0-.5,0-.9-.2-1.3.1.1.2.2.3.4v-.4c.2.5,0,.8.1,1.1,0,0-.2.2-.3.2Z"/>
  <path class="st14" d="M36.6,23.3c0,0-.2-.1-.2,0v.3c-.3-.5,0-1.1.2-.8,0,0,0,0,0,0,0,.1,0,.3,0,.4Z"/>
  <path class="st111" d="M42.4,19.1c0,0,0,0,0,.2,0,0,0,0,0,0,0,0,0,0,0,0Z"/>
  <path class="st111" d="M42.3,18.8c0-.2,0-.2.2,0,0,0,0,.2,0,.2,0,0,0-.1,0-.1Z"/>
  <path class="st39" d="M31.4,18.1s0,.3-.2.8c0,0,0,0,0-.2,0-.3,0-.9.4-.8,0,.5.5.9.4,1.5h-.3s.3,3.3.3,3.3c0,.7,0,1.4-.3,2.1v-.3c0,0,0,0,0-.1,0-.1,0-.2.1-.3h0c0-.4.1-.8.1-1.2-.2-1.2-.3-2.4-.3-3.6.4,0-.1-1-.2-1.2Z"/>
  <path class="st39" d="M32.4,26s0,0,0,0c0,0,0,0,0,0h-.1s0,0,0,0c0,0,0,0,0,0,0,0,0,0,0,0,0,0,0,0,0,0Z"/>
  <path class="st39" d="M32.4,26s0,0,.2,0h-.1c0,0,0,0,0,0Z"/>
  <path class="st39" d="M33,18.3c-.2-.1-.3,0-.3.4,0,1.3.1,2.5.3,3.8,0,0,0,0,0,0,0,0,0,0,0,0,0,0,0,0,0,.2l-.2-1.9c0-.8-.2-1.6,0-2.4,0-.5.2-.7.4-.1Z"/>
  <path class="st39" d="M33.1,25h.1c0,0-.2.3-.3.3,0-.8-.1-1.5,0-2.3l.2.4v1.5s0,0,0,0h0Z"/>
  <path class="st39" d="M34,25s0,.1-.1.2c0,0,0-.2,0-.3,0,0,0,0,0,0Z"/>
  <path class="st42" d="M35.4,16c-1.2-.1-2.6-.2-3.8-.2.5-.2,1.2,0,1.8,0h0c0,0,.2,0,.3,0h.2c.5,0,1.1,0,1.5.2Z"/>
  <path class="st42" d="M31.6,15.9c-.4,0-.9,0-1.3,0h0c.3-.2.7-.2,1,0h0s0,0,0,0h.3Z"/>
  <path class="st77" d="M32,22.7l-.3-3.3h.3c0-.5-.4-.9-.4-1.4-.4,0-.5.5-.4.8,0,.1,0,.2,0,.2.2,1.3.4,3.1.4,4.4,0,.2,0,.6,0,.8-.1.4-1.3.3-1.3,0s.5-.7.4-1.2c0-1.1-1.1-1.2-1.3,0,0,.4.1.8-.2,1.1,0,0,0,0,0,0,0,0,0,0-.2,0,0,0,0,0,.1,0,0,0,.2,0,.2,0,0,0-.2.3,0,.4.3,0,.3,0,.4.2.3.3.5.4,1,.3.4,0,.4-.3.7-.4.3-.7.4-1.3.3-2.1ZM29.9,22.9c.5-.2.8.9.1,1-.4,0-.5-.9-.1-1Z"/>
  <path class="st26" d="M30.2,18.9c0-.2,0-.3,0-.5-.2-.6-1.4.4-.5.9-.2.1-.4.4-.6.5-.3.2-.5.2-.7.4-.6.4,0,.4.3.2.5-.2.8-.7,1.4-.9.5-.2.2-.2,0-.6ZM29.7,18.9c0,0,0-.4.2-.3.3,0,0,.5-.2.3Z"/>
  <path class="st36" d="M25.1,20.7c-.2.4-.7.8-1.2.7,0-.2.5-.2.6-.4.1-.3-.7,0-.8-.1l.3-.5c.4-.1,1.1-.2,1.1.3Z"/>
  <path class="st84" d="M24.8,23.3c-.2,0-.6-.2-.7-.3,0,0,.1-.5.1-.5.4-.3,1,.5.5.8Z"/>
  <path class="st116" d="M24.4,19.5s0-.1,0-.2c0,0,0,.1,0,.2Z"/>
  <path class="st122" d="M24.6,18.3c-.2.2,0,.2-.2.3,0,0,0,.3-.2.3h0s0,0,0,0c0,0,0-.1,0-.2,0,0-.2-.3-.3-.3-.3,0-.5.1-.4.4.2.3.5.4.7.8,0,0,0,0,0,0,0,.1,0,.3.2.3,0,0,.2-.3.2-.4h0c0,0,0-.2,0-.3,0,0,0-.1,0-.2h0c0-.1.2-.3.2-.3.6.3.5-.5,0-.3ZM24.4,19.3c0,0,0,.1,0,.2,0,0,0-.1,0-.2Z"/>
  <path class="st103" d="M24.2,19s0,0,0,0c0,0,0-.1,0-.2,0,0,0,.1.1.2Z"/>
  <path class="st103" d="M24.4,19.5s0-.1,0-.2c0,0,0,.1,0,.2Z"/>
  <path class="st41" d="M26.2,19.7c0,.2,0,.3-.2.3v-.4s.1,0,.2,0Z"/>
  <path class="st54" d="M24.4,19.5s0-.1,0-.2c0,0,0,.1,0,.2Z"/>
  <path class="st109" d="M26.2,20.1c-.1,0-.2,0-.2,0v-.4s.1,0,.2,0c0,0,.3-.1.3,0,0,.2,0,.5-.3.5Z"/>
  <path class="st72" d="M33.3,10c.2.2,0,.6,0,.8.3.1.3,0,.4-.3,0-.3.4-.3.4,0,.3,0,.2.1.5,0,0,.2,0,.4.1.6v.2c.1,0,.1.2-.1.3-.2,0-.7,0-.9,0s-.2-.3-.3-.5-.4-.2-.4-.3c0,0,.4-.5.3-.8Z"/>
  <path class="st61" d="M31.2,11.4c-.2,0-.4,0-.6,0-.1-.2-.1-.4,0-.5-.2-.9,1.1-.8,1-.1s-.5.3-.3.6Z"/>
  <path class="st96" d="M35.3,10.5c.1,0,.2.2,0,.5.2.2,0,.4-.3.3-.1.2-.4.2-.5,0,0-.3-.4-.4,0-.8.3,0,.3-.1.7,0Z"/>
  <path class="st100" d="M35.3,10.5c.9.2.4.5.4,1.1s.2.3.2.5-.3,0-.2.3c-.1-.2-.3-.5-.3-.8,0-.2,0-.4,0-.6h0s0-.5,0-.5Z"/>
  <path class="st82" d="M30.5,11c0,.2.5.3,0,.5,0,0,0,0,0,0-.3.2-.4,0-.4-.8,0,.4-.2.5-.3.4,0,0,0,0,0,0-.2,0-.2-.2,0-.3,0,0,0,0,0,0-.2-.3.3-.4.6-.3h0c0,0,.1.4.2.5Z"/>
  <path class="st100" d="M33.6,10.4c0-.1-.1-.3.2-.3s.2.1.2.3c-.2,0-.3-.1-.4,0Z"/>
  <path class="st75" d="M30.1,12.4c.2.5.3,1.1.4,1.7,0,.6,0,.7-.6.7-.1,0-.2,0-.3,0-.2-.1.1-.1.1-.1,0,0-.6,0-.6,0-.2-.2,0-.6.3-.5.3-.5-.2-1.4,0-1.8s.2-.2.3-.4c.2,0,.4.2.6.3Z"/>
  <path class="st80" d="M33.4,13.1c0,0,0,0,0,.1,0,0,0,0,0,0,0-.2,0-1.3,0-1.4.1-.2.9,0,1,.3-.2-.2-.8-.3-.9-.2,0,0,0,1,0,1.2Z"/>
  <path class="st80" d="M34.3,13.5c0,.6-1.3.5-.9-.3,0,.2,0,.4.1.4.2,0,.7,0,.8-.2Z"/>
  <path class="st23" d="M31.3,14.6c0,0,.2-1.3.3-1.6,0-.2,0-.5,0-.6.2-.2.3.5.3.5,0,0-.1.1,0,.2,0,.2.7.2.6,0,0,0,0,0,0,.2,0,1.1.2,1.4-1.1,1.2Z"/>
  <path class="st59" d="M34.4,14.6h-1.1v-1.4c0,0,0,0,0,0,0,0,0,0,0,0,0,.2,0,.4.1.4.2,0,.7,0,.8-.2,0,0,0,0,0,.2,0,.2,0,.8,0,.9Z"/>
  <path class="st108" d="M29.3,14.2s-.2.3-.3.5c0,0,0,0,0,0,0,0,0,0,0,0,0,0,0,0,0,0,0,0,0,.2-.1.2v-.3c-.2,0-.2,0-.2-.2,0,0,0,0,0,0,0,0,0-.2,0-.3l-.2.8c0-.2,0-.8-.1-.9,0-.1-.2,0-.3,0,0,0,0,0,0,0,0,0-.1-.1,0-.2,0,0,0,0,0-.1,0,0,0,0,0,0,.1-.2,0-.3.1-.4.2,0,0,.2,0,.3.2.3.3,0,.4,0,.2,0,.4,0,.6,0,0,.1,0,.3,0,.4Z"/>
  <path class="st125" d="M35.8,14.8s0,0-.1.1c0,0,0-.1.1-.1Z"/>
  <path class="st125" d="M36.1,13.1c-.2.1-.4.2-.7.2.2,0,.5,0,.7-.2Z"/>
  <path class="st125" d="M36.5,15.2s0,0,0,0c0,0-.1,0-.2,0,0,0-.2,0-.3,0,0-.1.3,0,.3-.1,0-.3,0-.9,0-1.2-.1-.1-1.1.5-.9,1,0,.1.3,0,.2.3-.1,0-.2,0-.3-.2-.2-.4,0-.7,0-1.1s0-.4,0-.6c.1,0,0,.2,0,.3,0,0,0,0,0,0,0,0,0,0,0,0,.3-.1.8-.2.9-.6h0c0,.4,0,.9,0,1.5,0,0,0,.2,0,.3,0,0,0,0,0,0,0,0,0,.2,0,.3,0,0,0,0,0,0,0,0,0,.1,0,.1Z"/>
  <path class="st81" d="M32,12c0,0-.2,0-.3,0,0,0,0,0,0,0,0,0,.2,0,.3,0Z"/>
  <path class="st81" d="M32.3,12.6c0-.3.1-.7-.2-.6h0c.4-.3.3.3.2.6Z"/>
  <path class="st105" d="M30.2,12v.7s.3-.3.3-.3c0,.3,0,.6,0,.8,0,.6.6,1.8-.5,1.7.1,0,.5-.2.5-.2.1-.2,0-1,0-1.2-.1-.5-.4-.2-.2-1.1-.2,0-.2-.2,0-.3-.1-.1,0-.2,0,0Z"/>
  <path class="st86" d="M30.5,11.5c0,.2-.2.4-.3.5s0,0,0,0c-.2.4-.5-.3-.3-.5,0-.3,0-.5.2-.9.2,0,0,.7.4.8Z"/>
  <path class="st79" d="M34.3,12.1c-.2-.2-.8-.3-.9-.2,0,0,0,1,0,1.2,0,0,0,0,0,.1h0c0-.2,0-1.7,0-1.7.2-.2.3.2.4.3.2,0,.6,0,.6.3Z"/>
  <path class="st37" d="M32.8,13.3c.1,0,.2,1.1.2,1.2-.1.2-.5.1-.5-.1s.2-1.1.3-1.1Z"/>
  <path class="st30" d="M35.4,11c0-.1.1-.2,0-.3.2,0,.2,1,0,.9,0,0-.1,0-.2,0-.3,0-.5-.2,0-.3,0,0,.2-.2.3-.3Z"/>
  <path class="st34" d="M30.8,13.5c.1-.1.2,0,.2.1s0,.9,0,1c0,.1-.1.2-.2.1v-1.3Z"/>
  <path class="st88" d="M35.1,14.8h-.3c-.1-.4,0-.4,0-.8h0c0-.2.2-.2.3,0,0,.2,0,.3,0,.5h0c0-.1-.1-.3-.1-.3-.1,0-.2.2-.1.3h0s0,0,0,0c0,0,.2,0,.3,0,0,0,0,0,0,0,0,0,.1.1,0,.3Z"/>
  <path class="st55" d="M29,14.8c.2-.2.4,0,.7,0h0c0,0-.2.2-.2.2-.2,0-.6.3-.5,0,0,0,0,0,0,0Z"/>
  <path class="st120" d="M32.3,12.6c0-.3.1-.7-.2-.6h0s0-.2.2-.2c.3-.1.2.7,0,.8Z"/>
  <path class="st60" d="M35.1,11.2c-.1.2,0,.1,0,.3-.2,0-.4,0-.6,0,0,0,0-.2,0-.3.1,0,.4,0,.5,0Z"/>
  <path class="st50" d="M28.6,14.4h.2c0,.1,0,.3,0,.4,0,.2,0,.4-.2.3v-.8Z"/>
  <path class="st7" d="M35,14h-.3c0,0,0-.3,0-.3.2,0,.2.2.2.3Z"/>
  <path class="st97" d="M35.8,14.8s0,0-.1.1c0,0,0-.1.1-.1Z"/>
  <path class="st16" d="M37,15.3s0,0-.1,0c0,0-.2,0-.2,0,0,0,0,0,0,0s0,0,0-.1c0,0,0,0,0,0,0,0,0-.2,0-.3,0,0,0,0,0,.1,0,.2,0,.3,0,.4,0,0,0,0,.1,0Z"/>
  <path class="st42" d="M37,15.3s0,0-.1,0c-.2,0,0,.3-.3.3,0,0-.3-.5-.3-.5,0,0,.1,0,.2-.1,0-.2,0-.5.1-.6,0,.2,0,.5,0,.7h.2s0,0,0,0c0-.1,0-.2,0-.3,0,0,0,0,0,.1,0,.2,0,.3,0,.4,0,0,0,0,.1,0Z"/>
  <path class="st92" d="M31.3,15.9h-1c.2-.1.8-.1,1,0Z"/>
  <path class="st101" d="M27.9,13.7s0,0,0,.2c0,.1,0,.2,0,.3-.4,0,0-.3-.4-.3,0,0,.1.7,0,.8v-1.3c.1,0,.2,0,.3,0,0,0,.1,0,.2,0,0,0,0,0,0,0,0,0,0,0,0,0,0,0,0,.1,0,.2Z"/>
  <path class="st124" d="M28,13.8s0,0,0,0c0,0,0-.2,0-.2s-.2,0-.2-.1c.5,0,0-.5.3-.8.2.1,0,.8,0,1Z"/>
  <path class="st1" d="M26.2,5.8c.4-.6.7-1.7,1.5-1.7,0,.2,0,.5,0,.7s-.3.2-.3.4.1.3.2.4-.2.5-.2.8.1.5,0,.8c0,.4.1,2.1.3,2.5s.2.3.3.4c.1.2,0,.5-.3.8,0,.4-.1.6-.3.7-.3-.2-.5.2-.8,0,0-.3-.5-.8-.6-1s0-.6,0-.9c-.2-1.6-.3-2.2.2-3.7Z"/>
  <path class="st10" d="M29.9,11.6c0,0,.2.3,0,.5h.2c0,0,0,.2,0,.3-.3,0-.6,0-.6-.3.1-.1.2-.3.3-.4,0,0,0,0,0,0Z"/>
  <path class="st98" d="M29.6,11.4c-.2.4-.3.5-.8.3,0,0,.1-.2.2-.3,0,0,.2,0,.3,0,0-.2.1-.4.3-.3h0c.2,0,.1.3,0,.3Z"/>
  <path class="st121" d="M30.1,10.7c.1.3-.2.6-.2.9h0c0-.2,0-.2-.2-.2,0,0,0-.2,0-.3s.3-.2.2-.4c0,0,.1,0,.2,0Z"/>
  <path class="st31" d="M27.8,12.1s-.1,0-.2,0c0-.3-.3-.5-.3-.7s0-.6.1-.7c.1-.3.6-.3.5-.8,0,0,.2,0,.2.3s-.6.4-.4,1,.5.3,0,.7Z"/>
  <path class="st31" d="M29.3,10.3c0,0-.3-.1-.3-.4s.1-.5.1-.7-.1-.3-.2-.5c0-.7.1-1.2.2-1.9s0-.3,0-.4c0-.4.4-.3.8-.3v4.2c-.1.2-.4.1-.5,0Z"/>
  <path class="st69" d="M29.8,10.3c.1,0,.3.2.4.2-.1,0-.5.2-.6.3-.3-.1-.3-.4-.3-.5.2-.1.3,0,.5,0Z"/>
  <path class="st31" d="M29.6,10.9c0,0,0,.2,0,.3,0,.2-.2.3-.3.3,0-.3,0-.8.3-.6Z"/>
  <path class="st12" d="M35.4,13.4s0,0,0,0c0,0,0,0,0,0,0,0,0,0,0,0Z"/>
  <path class="st12" d="M35.4,13.3c.2,0,.5,0,.7-.2-.2.1-.4.2-.7.2Z"/>
  <path class="st12" d="M36.5,12.4h0s0,0,0,0c0,0,0,0,0,0Z"/>
  <path class="st117" d="M42.5,18.7s-.2,0-.2,0c0-.2,0-.2.2,0Z"/>
  <path class="st107" d="M33.3,19.4c0,.3-.2,0-.3,0,0,.9.1,1.8.2,2.6,0,0,0,0,0,.1,0,.2,0,.4-.1.5,0,0-.1.2-.2.2v-.2s-.3-1.9-.3-1.9c0-.8-.2-1.6,0-2.4,0-.5.2-.7.4-.1,0,.2.3.9.3,1.1Z"/>
  <path class="st78" d="M34.4,24.8s0,0,0,0c0-.1,0-.3,0-.4,0,0,0,0,0,0,0-.7,0-1.7,0-2.4,0-.6-.1-1.2-.2-1.7,0-.1,0-.3-.2-.1,0,.4,0,.7,0,1.1v.4c0,0,0,.2,0,.2,0,.2,0,.3,0,.5,0,0,0,0,0,0,0,0,0,0,0,.1,0,.6.2,1.2.2,1.8,0,.4,0,.5-.4.8,0,0,0-.2,0-.3,0-.2.1-.4.1-.7,0-.3,0-.7,0-1.2,0,0,0,0,0-.1,0,0,0-.1,0-.2-.1-1.5-.4-3.3-.3-4.3,0,0,0-.4.2-.3,0,0,.3,1.2.3,1.3.1,1.1.2,2.6.3,3.8,0,.5,0,1.2-.1,1.7Z"/>
  <path class="st114" d="M33.2,25c0,0-.2.2-.3.3,0-.8-.1-1.5,0-2.3,0-.1,0-.2,0-.4h0c0,0,0,0,0,0h.2c0,0,0,0,0,0,0,0,0,0,0,0h0c0-.1,0-.4,0-.5,0,0,0,0,0,.1,0,.8.2,2.2,0,2.8Z"/>
  <path class="st63" d="M37.9,27.4c-.2.1-.4-.3-.6-.2-.1,0-.1.4-.3.3,0,0-.5-.3-.5-.3-.1-.2.2-.7.6-.5,0,0,0,0,0,0,0,0,0,.1.1.2.2,0,.1-.2.2-.3.4-.3.9.5.5.7Z"/>
  <path class="st53" d="M32.4,26s0,0,0,0h-.1s0,0,0,0c0,0,0,0,0,0,0,0,0,0,0,0,0,0,0,0,0,0Z"/>
  <path class="st53" d="M32.6,26s0,0,0,0c0,0,0,0,0,0h0s0,0,.2,0Z"/>
  <path class="st38" d="M37.1,22.7v.4s-.1,0-.2,0v-.5h.2Z"/>
  <path class="st76" d="M32.9,14.5c-.1.1-.2,0-.2-.1,0-.3.1-.6,0-.9.1,0,0,.2,0,.3,0,.2,0,.5,0,.7Z"/>
  <path class="st57" d="M35.1,14.5c0,0,0,0,0,0,0,0,0,0,0,0Z"/>
</svg>